<svg xmlns="http://www.w3.org/2000/svg" viewBox="80 80 640 640" width="256" height="256">
  <g stroke="white" stroke-width="12" fill="none">
    <line x1="400" y1="200" x2="573.205" y2="300"/>
    <line x1="573.205" y1="300" x2="573.205" y2="500"/>
    <line x1="573.205" y1="500" x2="400" y2="600"/>
    <line x1="400" y1="600" x2="226.795" y2="500"/>
    <line x1="226.795" y1="500" x2="226.795" y2="300"/>
    <line x1="226.795" y1="300" x2="400" y2="200"/>
    <line x1="400" y1="290" x2="400" y2="200"/>
    <line x1="495.263" y1="345" x2="573.205" y2="300"/>
    <line x1="495.263" y1="455" x2="573.205" y2="500"/>
    <line x1="400" y1="510" x2="400" y2="600"/>
    <line x1="304.737" y1="455" x2="226.795" y2="500"/>
    <line x1="304.737" y1="345" x2="226.795" y2="300"/>
  </g>

  <g fill="black">
    <circle cx="400" cy="200" r="50"/>
    <circle cx="573.205" cy="300" r="50"/>
    <circle cx="573.205" cy="500" r="50"/>
    <circle cx="400" cy="600" r="50"/>
    <circle cx="226.795" cy="500" r="50"/>
    <circle cx="226.795" cy="300" r="50"/>
  </g>

  <g fill="white">
    <circle cx="400" cy="200" r="40"/>
    <circle cx="573.205" cy="300" r="40"/>
    <circle cx="573.205" cy="500" r="40"/>
    <circle cx="400" cy="600" r="40"/>
    <circle cx="226.795" cy="500" r="40"/>
    <circle cx="226.795" cy="300" r="40"/>
  </g>

  <g transform="translate(300, 300) scale(3.125)" shape-rendering="crispEdges">
    <rect x="16" y="8" width="8" height="2" fill="#FFFFFF" />
    <rect x="40" y="8" width="8" height="2" fill="#FFFFFF" />
    <rect x="16" y="10" width="2" height="6" fill="#FFFFFF" />
    <rect x="18" y="10" width="4" height="4" fill="#000000" />
    <rect x="22" y="10" width="2" height="12" fill="#FFFFFF" />
    <rect x="40" y="10" width="2" height="12" fill="#FFFFFF" />
    <rect x="42" y="10" width="4" height="4" fill="#000000" />
    <rect x="46" y="10" width="2" height="6" fill="#FFFFFF" />
    <rect x="18" y="14" width="4" height="2" fill="#FFFFFF" />
    <rect x="24" y="14" width="6" height="2" fill="#FFFFFF" />
    <rect x="34" y="14" width="6" height="2" fill="#FFFFFF" />
    <rect x="42" y="14" width="4" height="2" fill="#FFFFFF" />
    <rect x="24" y="16" width="4" height="10" fill="#000000" />
    <rect x="28" y="16" width="2" height="6" fill="#FFFFFF" />
    <rect x="34" y="16" width="2" height="6" fill="#FFFFFF" />
    <rect x="36" y="16" width="4" height="10" fill="#000000" />
    <rect x="4" y="20" width="8" height="2" fill="#FFFFFF" />
    <rect x="16" y="20" width="6" height="2" fill="#FFFFFF" />
    <rect x="30" y="20" width="4" height="2" fill="#FFFFFF" />
    <rect x="42" y="20" width="6" height="2" fill="#FFFFFF" />
    <rect x="52" y="20" width="8" height="2" fill="#FFFFFF" />
    <rect x="4" y="22" width="2" height="10" fill="#FFFFFF" />
    <rect x="6" y="22" width="4" height="8" fill="#000000" />
    <rect x="10" y="22" width="2" height="16" fill="#FFFFFF" />
    <rect x="16" y="22" width="2" height="10" fill="#FFFFFF" />
    <rect x="18" y="22" width="6" height="4" fill="#000000" />
    <rect x="28" y="22" width="8" height="20" fill="#000000" />
    <rect x="40" y="22" width="6" height="4" fill="#000000" />
    <rect x="46" y="22" width="2" height="10" fill="#FFFFFF" />
    <rect x="52" y="22" width="2" height="16" fill="#FFFFFF" />
    <rect x="54" y="22" width="4" height="8" fill="#000000" />
    <rect x="58" y="22" width="2" height="10" fill="#FFFFFF" />
    <rect x="18" y="26" width="4" height="16" fill="#000000" />
    <rect x="22" y="26" width="6" height="6" fill="#FFFFFF" />
    <rect x="36" y="26" width="6" height="6" fill="#FFFFFF" />
    <rect x="42" y="26" width="4" height="16" fill="#000000" />
    <rect x="6" y="30" width="4" height="2" fill="#FFFFFF" />
    <rect x="12" y="30" width="4" height="2" fill="#FFFFFF" />
    <rect x="48" y="30" width="4" height="2" fill="#FFFFFF" />
    <rect x="54" y="30" width="4" height="2" fill="#FFFFFF" />
    <rect x="12" y="32" width="6" height="4" fill="#000000" />
    <rect x="22" y="32" width="6" height="10" fill="#000000" />
    <rect x="36" y="32" width="6" height="10" fill="#000000" />
    <rect x="46" y="32" width="6" height="4" fill="#000000" />
    <rect x="12" y="36" width="6" height="2" fill="#FFFFFF" />
    <rect x="46" y="36" width="6" height="2" fill="#FFFFFF" />
    <rect x="16" y="38" width="2" height="6" fill="#FFFFFF" />
    <rect x="46" y="38" width="2" height="6" fill="#FFFFFF" />
    <rect x="18" y="42" width="6" height="2" fill="#FFFFFF" />
    <rect x="24" y="42" width="4" height="6" fill="#000000" />
    <rect x="28" y="42" width="8" height="2" fill="#FFFFFF" />
    <rect x="36" y="42" width="4" height="6" fill="#000000" />
    <rect x="40" y="42" width="6" height="2" fill="#FFFFFF" />
    <rect x="22" y="44" width="2" height="12" fill="#FFFFFF" />
    <rect x="28" y="44" width="2" height="6" fill="#FFFFFF" />
    <rect x="34" y="44" width="2" height="6" fill="#FFFFFF" />
    <rect x="40" y="44" width="2" height="12" fill="#FFFFFF" />
    <rect x="16" y="48" width="6" height="2" fill="#FFFFFF" />
    <rect x="24" y="48" width="4" height="2" fill="#FFFFFF" />
    <rect x="36" y="48" width="4" height="2" fill="#FFFFFF" />
    <rect x="42" y="48" width="6" height="2" fill="#FFFFFF" />
    <rect x="16" y="50" width="2" height="6" fill="#FFFFFF" />
    <rect x="18" y="50" width="4" height="4" fill="#000000" />
    <rect x="42" y="50" width="4" height="4" fill="#000000" />
    <rect x="46" y="50" width="2" height="6" fill="#FFFFFF" />
    <rect x="18" y="54" width="4" height="2" fill="#FFFFFF" />
    <rect x="42" y="54" width="4" height="2" fill="#FFFFFF" />
  </g>
</svg>
